<svg id="Layer_1" data-name="Layer 1" xmlns="http://www.w3.org/2000/svg" viewBox="0 0 128 128"><defs><style>.cls-1{fill:#fff;}</style></defs><title>camera</title><path d="M119.92,31.13H97.2L81.78,15.44H46.22L30.8,31.13H8.08A6.83,6.83,0,0,0,1.25,38v67.77a6.83,6.83,0,0,0,6.83,6.83H119.92a6.83,6.83,0,0,0,6.83-6.83V38A6.83,6.83,0,0,0,119.92,31.13Z"/><circle class="cls-1" cx="64" cy="71.84" r="37.65"/><path d="M64,36.95a34.9,34.9,0,1,0,34.9,34.9A34.9,34.9,0,0,0,64,36.95Zm0,60.9a26,26,0,1,1,26-26A26,26,0,0,1,64,97.85Z"/><path d="M21.59,24.64h-6.8A4.76,4.76,0,0,0,10,29.4H26.35A4.76,4.76,0,0,0,21.59,24.64Z"/></svg>