<svg id="Layer_1" data-name="Layer 1" xmlns="http://www.w3.org/2000/svg" viewBox="0 0 256.04 256.04"><defs><style>.cls-1{fill:#fff;}</style></defs><title>TBR</title><circle cx="42.65" cy="127" r="42.65"/><circle cx="128.02" cy="127" r="42.65"/><circle cx="213.39" cy="127" r="42.65"/><path class="cls-1" d="M128,155.17A28.17,28.17,0,1,1,156.19,127,28.2,28.2,0,0,1,128,155.17Zm0-48.52A20.35,20.35,0,1,0,148.37,127,20.37,20.37,0,0,0,128,106.65Z"/><path class="cls-1" d="M61.16,141.38a20.35,20.35,0,1,1,0-28.76l5.53-5.53a28.17,28.17,0,1,0,0,39.82Z"/><path class="cls-1" d="M193.24,124.2a20.33,20.33,0,0,1,34.53-11.58l5.53-5.53a28.16,28.16,0,0,0-47.94,17.11v5.61h48.18A20.33,20.33,0,0,1,199,141.38l-5.53,5.53a28.16,28.16,0,0,0,47.94-17.11V124.2Z"/></svg>