<svg id="Layer_1" data-name="Layer 1" xmlns="http://www.w3.org/2000/svg" viewBox="0 0 128 128"><defs><style>.cls-1{fill:#fff;}</style></defs><title>TBR</title><path d="M14.71,127S-.4,92.72,12,64.35,12,1.69,12,1.69H115.74s11.61,42.89,0,62.65S120.9,127,120.9,127Z"/><polygon class="cls-1" points="59.16 101.79 45.4 97.97 53.31 85.97 39.82 79.83 35.97 93.68 24.05 85.83 17.92 99.31 31.68 103.14 23.76 115.14 37.25 121.28 41.1 107.42 53.03 115.28 59.16 101.79"/><path class="cls-1" d="M59,12.05c-6.79,1-12.52,2.81-16.82,5.35l3.91,4.33a44.26,44.26,0,0,1,14.35-4.18Z"/><path class="cls-1" d="M39.31,28.64a7.54,7.54,0,0,1,1.21-2.46l-3.85-4.25a13.7,13.7,0,0,0-2.8,5.26c-1.1,4.12,0,8.45,2,12.15l4.69-3.18C39.33,33.65,38.69,30.95,39.31,28.64Z"/><path class="cls-1" d="M71.29,53.09c2.48-.11,4.86-.22,7.11-.21l.86-5.6c-2.7-.05-5.48.07-8.23.19-2.5.11-5,.23-7.49.22l-.86,5.61C65.59,53.34,68.49,53.22,71.29,53.09Z"/><path class="cls-1" d="M94.4,70.91a27.5,27.5,0,0,1-3.18,8.39,22.37,22.37,0,0,1-4.68,5.55l5.09,2.94a27.6,27.6,0,0,0,4.44-5.63,32.89,32.89,0,0,0,4.14-11.92Z"/><path class="cls-1" d="M67.63,16.91a100.31,100.31,0,0,1,12.84.32l.48-5.6a105.72,105.72,0,0,0-14.77-.28Z"/><path class="cls-1" d="M56.41,47.22A20.8,20.8,0,0,1,44.76,41.9L40,45.12l.18.19c4.41,4.56,9.76,6.6,15.36,7.45Z"/><path class="cls-1" d="M85.5,53.54a11.4,11.4,0,0,1,6.77,3.93,12.7,12.7,0,0,1,2.47,6.25l5.54-.63A18.25,18.25,0,0,0,96.68,54a16.89,16.89,0,0,0-10.33-6Z"/><path class="cls-1" d="M79.63,89.09a30.3,30.3,0,0,1-16.45,1.8l-.9,5.55a37.13,37.13,0,0,0,6,.49,34.66,34.66,0,0,0,17.19-4.47Z"/></svg>