<svg id="Layer_1" data-name="Layer 1" xmlns="http://www.w3.org/2000/svg" viewBox="0 0 128 128"><title>TBR</title><polygon points="10.45 90.96 10.45 36.34 0 36.34 0 102.52 35.46 102.52 35.46 90.96 10.45 90.96"/><path d="M48,102.6C55,102.6,60.56,91.12,60.56,77h-25C35.54,91.12,41.14,102.6,48,102.6Z"/><polygon points="95.61 36.34 62.06 36.34 62.06 80.05 95.61 36.34"/><polygon points="69.5 75.58 62.06 85.26 62.06 102.52 88.1 102.52 69.52 75.62 69.5 75.58"/><polygon points="100.93 102.52 89.84 102.52 93.96 76.95 100.93 76.95 100.93 102.52"/><circle cx="97.34" cy="70.73" r="3.43"/><path d="M116,78.24V63a12,12,0,0,0,0,24v15.25a12,12,0,0,0,0-24Z"/></svg>