<svg id="Layer_1" data-name="Layer 1" xmlns="http://www.w3.org/2000/svg" viewBox="0 0 128 128"><defs><style>.cls-1{fill:#fff;}</style></defs><title>TBR</title><path d="M101.46,68.81a36.81,36.81,0,0,0,4.06-16.74c0-23.73-23.06-43-51.5-43s-51.5,19.24-51.5,43S25.58,95,54,95a60.31,60.31,0,0,0,19.56-3.21l52.39,26Z"/><path d="M128,119.81l-54.49-27A61.09,61.09,0,0,1,54,95.95c-28.9,0-52.41-19.68-52.41-43.88S25.12,8.19,54,8.19s52.41,19.68,52.41,43.88a37.55,37.55,0,0,1-3.95,16.74Zm-54.36-29L74,91l50,24.75-23.5-47,.21-.41a35.8,35.8,0,0,0,4-16.33C104.61,28.88,81.92,10,54,10S3.43,28.88,3.43,52.07,26.13,94.12,54,94.12A59.22,59.22,0,0,0,73.28,91Z"/><polygon class="cls-1" points="0.91 71.89 0.91 31.89 8.46 31.89 34.33 43.45 34.33 31.89 41.88 31.89 41.88 71.89 0.91 71.89"/><path d="M42.79,72.8H0V31H8.66L33.42,42V31h9.37ZM1.82,71H41V32.8H35.24V44.86L8.27,32.8H1.82Z"/><path class="cls-1" d="M51.23,31.89h-5v40h5V68.35C60.48,68.35,68,60.19,68,50.12S60.48,31.89,51.23,31.89Z"/><path d="M52.14,72.8h-6.8V31h5.89C61,31,68.89,39.56,68.89,50.12c0,10.23-7.43,18.6-16.75,19.12Zm-5-1.82h3.16V67.44h.91c8.73,0,15.84-7.77,15.84-17.32S60,32.8,51.23,32.8H47.16Z"/><polygon class="cls-1" points="71.07 71.89 71.07 31.89 78.62 31.89 104.48 43.45 104.48 31.89 112.03 31.89 112.03 71.89 71.07 71.89"/><path d="M112.95,72.8H70.16V31h8.66L103.57,42V31h9.37ZM72,71h39.14V32.8H105.4V44.86l-27-12.06H72Z"/></svg>