<svg id="Layer_1" data-name="Layer 1" xmlns="http://www.w3.org/2000/svg" viewBox="0 0 128 128"><title>TBR</title><path d="M62.05,67.61s3.46,2,2.85,3.74S61.63,78,61.63,78s6.54-4.35,6.39-6.49S66.94,68.72,62.05,67.61Z"/><path d="M53.91,68.26a.46.46,0,0,1-.38-.34c-.44-2.49-2.94-4.74-3.36-5.26s-2.28-.49-2.28-.49c-1.52-.21-7,2.57-8.26,4.75s.23,1.89.23,1.89l1.64-1.33s2.31-1.59,2.18-.79,0,3.69,1.21,4.62.79,1,.79,1c-1,1.54-7.25,4.74-7.25,4.74A14,14,0,0,0,42.22,76a22,22,0,0,0,2.65-1.94s1.78-1.47,2.48-2a27.37,27.37,0,0,1,5.23-2.1,4.45,4.45,0,0,0,2-1.38A1.84,1.84,0,0,0,53.91,68.26Zm-3.13,1.56c-.7-.07-4.54,2.07-4.54,2.07a.54.54,0,0,0-.13-.65,5.36,5.36,0,0,1-1.53-4.89s.72-2.33,1.53-2.73a4.72,4.72,0,0,1,3,0c1.44.59,3.11,3.59,3.18,4.25s1,1,1,1A7.63,7.63,0,0,1,50.78,69.82Z"/><path d="M6.13,93.66a5.75,5.75,0,0,1,1.1-2.75c.85-.84,1.73-1.79,2.13-1.65s.26.75,0,.83a2.88,2.88,0,0,0-1.49,1C7.44,91.72,6.13,93.66,6.13,93.66Z"/><path d="M121.61,41.54s-1.06,1.55-2.05,1.66c0,0,8.14-14.9,8.44-20.29a11.16,11.16,0,0,1-2.16,2.84s2.46-2.49,1-8.06c0,0-13.4,8.69-48.11,18.63,0,0-15.58-7-27.17,3.93A216,216,0,0,0,30.8,58.6s-1.63,5.86-4.68,9S4.5,85.08,1.87,89.69s-2.08,3.46-.79,4.87c0,0,11.42,8.24,20.87,7.79a5.86,5.86,0,0,1,1.63,2.77,24.47,24.47,0,0,0,2,4.43s1.57,2.2,5.84-.9S45,98.71,50.53,98.9s10.71-1.28,15.86-.47,5.44,2.73,5.44,2.73S73.11,99.81,73,99c0,0,1.19.48,2.91,4.48,0,0,7.4-4.55,8.94-7.18a28.77,28.77,0,0,0,2.39-7c3.27-4.33,7.11-10.36,4.56-12,0,0,3.47-4.34,3.84-7.29,0,0,7.59,1.21,8.35-3.74,0,0,13.77-9.15,16.76-18.37a8.22,8.22,0,0,1-3.19,1S122.34,44.13,121.61,41.54ZM37.72,56.66c1.07-.65,5.89-5.24,5.89-5.24a9.14,9.14,0,0,1,6.81-3l1.87.16A18,18,0,0,0,48.72,51c-1.33,1.28-3.58,3.58-6.89,7.15s-4.9-.13-4.9-.13S36.65,57.32,37.72,56.66ZM76.66,100.8a10.27,10.27,0,0,0-4.78-4.35,5.79,5.79,0,0,1,0,2.31c.1-.78-.62-3.67-17.74-1.94a45.19,45.19,0,0,0-13.77,3.26,92.28,92.28,0,0,0-8.78,6.48c-2.66,2.46-2.82,2.58-4.07,2.91s-3.38-5.07-3.38-5.07-1.3-2.24.58-2.93,6-1.12,15-10.38S54.59,82,54.59,82s-5.14-.59-15.66,7.23L28.52,98s-7,3.56-10.41,2.77A51,51,0,0,1,1.77,93.86a1.74,1.74,0,0,1-.21-.72c.88-1.29,3.27-3.44,9.73-6.43C22.48,81.53,33.68,76.2,36.61,72.35s.91-6.21.91-6.21S32.93,61,36.35,58.31c0,0,1.25,3.8,5.13.71s3.4-6.24,10.29-3.71A66.94,66.94,0,0,1,60.36,62a17.21,17.21,0,0,0,3.84,1.45c2,.45,6.69,3.6,8.63,7.09s-3,9.91-3.82,10.63-5.39,5.67-5.39,5.67,7-4,8.58-5.74,4.54-6.65,4.35-9.55A7.73,7.73,0,0,0,74.76,67s4.06-.15,4.84,6.2,3,6.1-7.94,19.24c0,0,5.9-2.65,8.66-6.41a21,21,0,0,0,3.35-5.89s1.75,9.28-.19,13.83C83.48,94,80.8,98.84,76.66,100.8Zm30.1-49.73c-5.36,3.25-6.71,6.89-15,3.64,0,0-1.91-.92-7-.54s-2.79,1.14-5.07.39c0,0-7-7.12-.28-9.64s17.49-6.64,17.49-6.64,12.28-4.41,21.92-8.9C118.83,29.38,112.12,47.81,106.76,51.06Z"/></svg>