<svg id="Layer_1" data-name="Layer 1" xmlns="http://www.w3.org/2000/svg" viewBox="0 0 128 128"><defs><style>.cls-1{fill:#fff;}</style></defs><title>TBR</title><path d="M31.12,105l5.35,2.68h17.3l3.18-4.07.78,4.07h49.15l8.73-1.8,7.16-5.93,5.25,3.69V72.36L115.77,61.91l12.23-.6V45.21l-5.42-5.12,5.42-.71V23H93.2L83.4,28.57l-7-5.59H11.39l.22.28L0,32.51V58.33L6.68,69.77,0,76.11V107.7H25.56C28.57,106.22,31.12,105,31.12,105Z"/><path class="cls-1" d="M15.86,43.24V88H60.58L72.2,75.22V30.49H27.48ZM27.48,73.32,18.6,83.05V46h8.88ZM30.22,46H57.84V72.48H30.22Zm30.36-.84,8.88-9.74V72.48H60.58Zm7.14-11.91-9.12,10H30.22v-10ZM27.48,35.41v7.83H20.34ZM20.34,85.22l9.12-10H57.84v10Zm40.25-2.17V75.22h7.14Z"/><polygon class="cls-1" points="111.58 101.46 71.55 101.46 65.37 94.83 15.86 94.83 15.86 91.83 66.68 91.83 72.86 98.46 111.58 98.46 111.58 101.46"/><rect class="cls-1" x="72.2" y="81.8" width="33.56" height="2"/><rect class="cls-1" x="72.2" y="86.97" width="22.39" height="2"/><rect class="cls-1" x="72.2" y="92.33" width="26.81" height="2"/></svg>