<svg id="Layer_1" data-name="Layer 1" xmlns="http://www.w3.org/2000/svg" viewBox="0 0 128 128"><title>TBR</title><rect x="83.48" y="10.37" width="29.11" height="29.11"/><rect x="114.57" y="40.85" width="9.11" height="41.09"/><rect x="15.41" y="15.05" width="29.11" height="29.11"/><rect x="4.32" y="45.52" width="9.11" height="41.09"/><rect x="49.71" y="37.77" width="29.11" height="29.11"/><rect x="49.08" y="68.24" width="30.37" height="44.07"/><rect x="38.62" y="68.24" width="9.11" height="41.09"/><rect x="80.8" y="68.24" width="9.11" height="41.09"/><polygon points="35.05 64.67 45.15 64.67 45.15 45.52 14.78 45.52 14.78 89.59 35.05 89.59 35.05 64.67"/><rect x="42.2" y="71.81" width="1.97" height="17.78"/><rect x="84.37" y="71.81" width="1.97" height="13.1"/><polygon points="82.85 40.85 82.85 64.67 93.48 64.67 93.48 84.92 113.22 84.92 113.22 40.85 82.85 40.85"/></svg>