<svg id="Layer_1" data-name="Layer 1" xmlns="http://www.w3.org/2000/svg" viewBox="0 0 128 128"><defs><style>.cls-1{fill:#fff;}</style></defs><title>worlds</title><polygon class="cls-1" points="64 5.13 4.48 27.83 4.21 102.04 64 123.01 123.99 101.5 123.5 27.83 64 5.13"/><path d="M64,124.25m1.42-.51,59.3-21.24V27.08l-1.4-.54L64,3.75,4.68,26.54l-1.4.54V102.5l59.3,21.24,1.42.51ZM119.23,28,95.74,36.42,78.2,27.3,54.38,37l17.23,8L64,47.79,30.85,35.91l18.68-8.7L33.08,18.66,64,6.78ZM71.48,60.77l-6.06,2.47v-13l6.06-2.17Zm-8.89,60L32.79,110.06V100l-7-2.88v-2l.88.36V83.21l-12.32-5v8.73L6.12,83.57V41l11.7,4.77V34.25l44.77,16Zm2.83-45.17,2.88-1.17v8l12.32-5v-6L99,63.94V38.26l22.88-8.19V89.29l-11.11,4.54v10.66L65.42,120.73Z"/></svg>