<?xml version="1.0" encoding="UTF-8" standalone="no"?>
<svg
   xmlns:dc="http://purl.org/dc/elements/1.1/"
   xmlns:cc="http://creativecommons.org/ns#"
   xmlns:rdf="http://www.w3.org/1999/02/22-rdf-syntax-ns#"
   xmlns:svg="http://www.w3.org/2000/svg"
   xmlns="http://www.w3.org/2000/svg"
   xmlns:sodipodi="http://sodipodi.sourceforge.net/DTD/sodipodi-0.dtd"
   xmlns:inkscape="http://www.inkscape.org/namespaces/inkscape"
   id="Layer_1"
   data-name="Layer 1"
   viewBox="0 0 128 128"
   version="1.1"
   sodipodi:docname="rax_head.svg"
   inkscape:version="0.92.1 r15371">
  <metadata
     id="metadata15">
    <rdf:RDF>
      <cc:Work
         rdf:about="">
        <dc:format>image/svg+xml</dc:format>
        <dc:type
           rdf:resource="http://purl.org/dc/dcmitype/StillImage" />
      </cc:Work>
    </rdf:RDF>
  </metadata>
  <defs
     id="defs13" />
  <sodipodi:namedview
     pagecolor="#ffffff"
     bordercolor="#666666"
     borderopacity="1"
     objecttolerance="10"
     gridtolerance="10"
     guidetolerance="10"
     inkscape:pageopacity="0"
     inkscape:pageshadow="2"
     inkscape:window-width="1858"
     inkscape:window-height="1057"
     id="namedview11"
     showgrid="false"
     inkscape:zoom="5.2149125"
     inkscape:cx="78.148057"
     inkscape:cy="59.800034"
     inkscape:window-x="1334"
     inkscape:window-y="470"
     inkscape:window-maximized="1"
     inkscape:current-layer="Layer_1" />
  <path
     d="M62.05,67.61s3.46,2,2.85,3.74S61.63,78,61.63,78s6.54-4.35,6.39-6.49S66.94,68.72,62.05,67.61Z"
     id="path2" />
  <path
     d="M53.91,68.26a.46.46,0,0,1-.38-.34c-.44-2.49-2.94-4.74-3.36-5.26s-2.28-.49-2.28-.49c-1.52-.21-7,2.57-8.26,4.75s.23,1.89.23,1.89l1.64-1.33s2.31-1.59,2.18-.79,0,3.69,1.21,4.62.79,1,.79,1c-1,1.54-7.25,4.74-7.25,4.74A14,14,0,0,0,42.22,76a22,22,0,0,0,2.65-1.94s1.78-1.47,2.48-2a27.37,27.37,0,0,1,5.23-2.1,4.45,4.45,0,0,0,2-1.38A1.84,1.84,0,0,0,53.91,68.26Zm-3.13,1.56c-.7-.07-4.54,2.07-4.54,2.07a.54.54,0,0,0-.13-.65,5.36,5.36,0,0,1-1.53-4.89s.72-2.33,1.53-2.73a4.72,4.72,0,0,1,3,0c1.44.59,3.11,3.59,3.18,4.25s1,1,1,1A7.63,7.63,0,0,1,50.78,69.82Z"
     id="path4" />
  <path
     d="M6.13,93.66a5.75,5.75,0,0,1,1.1-2.75c.85-.84,1.73-1.79,2.13-1.65s.26.75,0,.83a2.88,2.88,0,0,0-1.49,1C7.44,91.72,6.13,93.66,6.13,93.66Z"
     id="path6" />
  <path
     d="M121.61,41.54s-1.06,1.55-2.05,1.66c0,0,8.14-14.9,8.44-20.29a11.16,11.16,0,0,1-2.16,2.84s2.46-2.49,1-8.06c0,0-13.4,8.69-48.11,18.63,0,0-15.58-7-27.17,3.93A216,216,0,0,0,30.8,58.6s-1.63,5.86-4.68,9S4.5,85.08,1.87,89.69s-2.08,3.46-.79,4.87c0,0,11.42,8.24,20.87,7.79a5.86,5.86,0,0,1,1.63,2.77,24.47,24.47,0,0,0,2,4.43s1.57,2.2,5.84-.9S45,98.71,50.53,98.9s10.71-1.28,15.86-.47,5.44,2.73,5.44,2.73S73.11,99.81,73,99c0,0,1.19.48,2.91,4.48,0,0,7.4-4.55,8.94-7.18a28.77,28.77,0,0,0,2.39-7c3.27-4.33,7.11-10.36,4.56-12,0,0,3.47-4.34,3.84-7.29,0,0,7.59,1.21,8.35-3.74,0,0,13.77-9.15,16.76-18.37a8.22,8.22,0,0,1-3.19,1S122.34,44.13,121.61,41.54ZM37.72,56.66c1.07-.65,5.89-5.24,5.89-5.24a9.14,9.14,0,0,1,6.81-3l1.87.16A18,18,0,0,0,48.72,51c-1.33,1.28-3.58,3.58-6.89,7.15s-4.9-.13-4.9-.13S36.65,57.32,37.72,56.66ZM76.66,100.8a10.27,10.27,0,0,0-4.78-4.35,5.79,5.79,0,0,1,0,2.31c.1-.78-.62-3.67-17.74-1.94a45.19,45.19,0,0,0-13.77,3.26,92.28,92.28,0,0,0-8.78,6.48c-2.66,2.46-2.82,2.58-4.07,2.91s-3.38-5.07-3.38-5.07-1.3-2.24.58-2.93,6-1.12,15-10.38S54.59,82,54.59,82s-5.14-.59-15.66,7.23L28.52,98s-7,3.56-10.41,2.77A51,51,0,0,1,1.77,93.86a1.74,1.74,0,0,1-.21-.72c.88-1.29,3.27-3.44,9.73-6.43C22.48,81.53,33.68,76.2,36.61,72.35s.91-6.21.91-6.21S32.93,61,36.35,58.31c0,0,1.25,3.8,5.13.71s3.4-6.24,10.29-3.71A66.94,66.94,0,0,1,60.36,62a17.21,17.21,0,0,0,3.84,1.45c2,.45,6.69,3.6,8.63,7.09s-3,9.91-3.82,10.63-5.39,5.67-5.39,5.67,7-4,8.58-5.74,4.54-6.65,4.35-9.55A7.73,7.73,0,0,0,74.76,67s4.06-.15,4.84,6.2,3,6.1-7.94,19.24c0,0,5.9-2.65,8.66-6.41a21,21,0,0,0,3.35-5.89s1.75,9.28-.19,13.83C83.48,94,80.8,98.84,76.66,100.8Zm30.1-49.73c-5.36,3.25-6.71,6.89-15,3.64,0,0-1.91-.92-7-.54s-2.79,1.14-5.07.39c0,0-7-7.12-.28-9.64s17.49-6.64,17.49-6.64,12.28-4.41,21.92-8.9C118.83,29.38,112.12,47.81,106.76,51.06Z"
     id="path8" />
  <path
     style="fill:#999999;fill-opacity:1;stroke:#000000;stroke-width:0.09587888;stroke-linecap:square;stroke-linejoin:bevel;stroke-miterlimit:4;stroke-dasharray:none;stroke-opacity:1"
     d="m 26.644541,108.81928 c -0.668439,-0.71009 -2.577936,-4.50144 -2.767222,-5.49438 -0.182872,-0.95929 0.152716,-1.47748 1.207225,-1.86411 3.198232,-1.1726 4.018658,-1.557798 5.822051,-2.733507 2.625737,-1.711833 4.706273,-3.472238 8.910424,-7.539386 3.617094,-3.499223 5.571484,-5.10488 8.03149,-6.598385 1.819594,-1.104703 4.320102,-2.150786 5.538335,-2.316952 1.198532,-0.163481 1.360565,-0.438776 0.18397,-0.312567 -2.81463,0.301917 -7.683317,2.439719 -11.837558,5.197781 -1.265601,0.84025 -4.760386,3.602783 -7.76619,6.138962 -5.211746,4.397468 -5.557002,4.65184 -7.447628,5.487141 -2.492128,1.10105 -4.902305,1.804963 -6.640829,1.939503 -1.153547,0.0893 -1.697751,0.007 -3.771851,-0.57025 -3.39386,-0.944541 -5.749991,-1.849336 -9.0816584,-3.487507 -3.5226595,-1.732083 -5.2733387,-2.82735 -5.2733387,-3.299128 0,-0.190849 0.4530277,-0.78891 1.0067283,-1.329027 2.0093534,-1.960052 4.2233803,-3.171618 15.8679558,-8.683304 9.400551,-4.44953 15.327743,-7.967982 17.629475,-10.465064 1.180256,-1.280428 1.948316,-3.032371 1.955143,-4.459675 0.0059,-1.239135 -0.235061,-1.856595 -1.236805,-3.168952 -0.797971,-1.0454 -1.63821,-2.935119 -1.773654,-3.988998 -0.08337,-0.648697 -0.0075,-1.030227 0.336128,-1.691027 0.244085,-0.469331 0.532562,-0.88004 0.641058,-0.912687 0.108499,-0.03265 0.344506,0.189897 0.524465,0.494542 0.359577,0.608715 1.374645,1.175594 2.105048,1.175594 1.076662,0 2.77984,-1.133186 4.598547,-3.059583 0.978475,-1.036412 2.102816,-2.074987 2.498535,-2.307944 1.485679,-0.874608 4.505485,-0.385166 6.759064,1.095492 1.830846,1.202912 4.05417,2.906084 6.024456,4.615023 1.776471,1.540831 2.66782,2.019163 5.196024,2.788384 2.966155,0.90247 7.009676,4.059037 8.597686,6.711767 0.537345,0.897623 0.642388,1.260517 0.642388,2.219285 0,1.277844 -0.382802,2.613479 -1.241831,4.332865 -1.005552,2.012661 -2.050467,3.357809 -5.180353,6.66881 -1.679221,1.776393 -3.004022,3.278913 -2.944,3.338933 0.140737,0.140736 4.790324,-2.724629 6.79817,-4.189457 1.88826,-1.377582 3.110846,-2.941754 4.547687,-5.818286 1.771238,-3.545989 1.947628,-5.680945 0.680859,-8.240872 -0.311856,-0.63021 -0.532954,-1.179892 -0.491331,-1.221516 0.166986,-0.166986 1.023258,0.182759 1.767663,0.722005 1.334241,0.966518 2.056518,2.741212 2.657746,6.530291 0.565025,3.560926 0.546505,4.908703 -0.09004,6.552497 -0.593818,1.533454 -2.73913,4.702612 -5.606499,8.282189 -1.354723,1.691215 -2.428156,3.109912 -2.385407,3.152661 0.11065,0.110652 2.410052,-1.182386 4.325351,-2.432306 2.921516,-1.906571 5.410502,-4.783543 6.990221,-8.079865 0.35727,-0.745495 0.683181,-1.219069 0.738946,-1.073744 0.293004,0.763555 0.550554,5.088237 0.467289,7.84654 -0.111609,3.697211 -0.352562,4.629156 -1.701296,6.58017 -1.127885,1.631544 -3.554602,4.02912 -4.825941,4.767994 -0.505732,0.29391 -0.940472,0.50234 -0.966091,0.46316 -0.6538,-0.999906 -1.843582,-2.33658 -2.560014,-2.876083 -0.819617,-0.617205 -2.006797,-1.317949 -2.232827,-1.317949 -0.04502,0 -0.03595,0.407217 0.02015,0.904926 l 0.101998,0.904924 -0.617699,-0.519759 c -1.955583,-1.645514 -8.611901,-1.928621 -18.609346,-0.791498 -4.10215,0.466585 -7.280686,1.206676 -10.89123,2.535916 -2.28148,0.839943 -7.812873,4.733233 -11.431007,8.045753 -1.291649,1.18255 -1.890674,1.58437 -2.763473,1.8537 -0.343125,0.10588 -0.565468,-0.002 -1.037158,-0.50304 z M 7.1999787,92.25114 C 7.8700877,91.221226 8.3577323,90.693371 8.8898816,90.421888 9.4554065,90.133379 9.6232471,89.941151 9.5779125,89.633886 9.5449335,89.410364 9.4130292,89.192939 9.284792,89.150722 8.9595321,89.04364 7.1569283,90.771819 6.7407829,91.589693 6.327583,92.401779 5.9505188,93.704729 6.1297072,93.701272 6.2003059,93.699929 6.681928,93.047351 7.1999787,92.25114 Z M 63.50319,76.752345 c 2.269628,-1.703382 4.346086,-3.920536 4.515,-4.820922 0.187357,-0.998706 -0.19818,-2.098979 -0.931157,-2.657398 -0.699315,-0.532775 -3.083583,-1.382725 -4.364366,-1.555822 -0.754502,-0.10197 -0.808418,-0.0861 -0.459325,0.135176 1.599601,1.013937 2.576726,2.182971 2.576726,3.082801 0,0.267152 -0.731723,1.961214 -1.626051,3.764581 -0.894329,1.803369 -1.563054,3.278851 -1.486059,3.278851 0.077,0 0.87585,-0.55227 1.775232,-1.227267 z M 41.082239,76.533367 c 1.15223,-0.380917 2.127445,-1.016393 4.602903,-2.999373 2.054551,-1.645809 3.883498,-2.596373 6.407208,-3.330035 1.027575,-0.298725 2.584556,-1.273451 2.584556,-1.618027 0,-0.102796 -0.206755,-0.238794 -0.459456,-0.302218 -0.346736,-0.08702 -0.557426,-0.384008 -0.858793,-1.210533 -0.679813,-1.864456 -2.819673,-4.51957 -3.889856,-4.826495 -1.443533,-0.414 -3.053955,-0.09309 -5.342883,1.064663 -2.485889,1.257383 -4.438238,2.950497 -4.878301,4.230556 -0.513293,1.493069 0.145936,1.737293 1.604127,0.59428 0.590297,-0.46271 1.427886,-1.021529 1.861306,-1.241822 l 0.788038,-0.400531 0.114767,1.380401 c 0.158133,1.901986 0.469717,2.743924 1.310218,3.540382 0.579105,0.548757 0.682732,0.749393 0.53227,1.030537 -0.235452,0.439943 -3.751404,2.771405 -5.646764,3.744424 -0.787841,0.404452 -1.432809,0.788945 -1.433261,0.854429 -0.0012,0.157515 1.594086,-0.143734 2.703921,-0.510638 z"
     id="path3687"
     inkscape:connector-curvature="0" />
  <path
     style="fill:#999999;fill-opacity:1;stroke:#000000;stroke-width:0.09587888;stroke-linecap:square;stroke-linejoin:bevel;stroke-miterlimit:4;stroke-dasharray:none;stroke-opacity:1"
     d="m 95.137796,55.62703 c -0.685534,-0.148472 -2.023045,-0.547904 -2.972246,-0.887626 -1.700888,-0.608754 -1.775684,-0.61769 -5.17746,-0.618536 -2.248527,-5.75e-4 -3.852677,0.09115 -4.602186,0.263115 -2.01207,0.461634 -2.362411,0.390521 -3.294494,-0.668719 -0.936908,-1.064723 -2.029782,-3.049121 -2.357808,-4.281216 -0.474452,-1.782082 0.396237,-3.409685 2.250204,-4.206373 0.500086,-0.214897 6.259289,-2.417662 12.798229,-4.895033 16.322525,-6.184021 20.356725,-7.786002 24.942945,-9.904842 0.92189,-0.425918 1.71656,-0.734008 1.76593,-0.684643 0.11643,0.116427 -1.21323,3.443278 -2.87459,7.192347 -2.78754,6.290412 -5.70714,11.187636 -7.76393,13.0229 -1.16753,1.041774 -5.29369,4.01045 -6.7701,4.870931 -1.03193,0.601423 -2.852655,1.103959 -3.923387,1.082889 -0.426074,-0.0084 -1.335573,-0.136722 -2.021107,-0.285194 z"
     id="path3689"
     inkscape:connector-curvature="0" />
  <path
     style="fill:#666666;fill-opacity:1;stroke:#000000;stroke-width:0.09587888;stroke-linecap:square;stroke-linejoin:bevel;stroke-miterlimit:4;stroke-dasharray:none;stroke-opacity:1"
     d="m 37.712735,58.893322 c -0.995633,-0.995633 -0.909845,-1.405983 0.530594,-2.537981 0.664476,-0.522191 2.524787,-2.167601 4.134024,-3.656466 2.1318,-1.97234 3.249599,-2.861522 4.118639,-3.276276 1.368091,-0.65293 3.405234,-1.036622 4.540188,-0.855135 l 0.778549,0.124494 -1.205581,0.763603 c -0.778039,0.492802 -2.769676,2.347066 -5.61601,5.228646 -2.425735,2.455774 -4.59891,4.559907 -4.829277,4.675851 -0.847063,0.426329 -1.72529,0.2591 -2.451126,-0.466736 z"
     id="path3691"
     inkscape:connector-curvature="0" />
</svg>
