<?xml version="1.0" encoding="UTF-8" standalone="no"?>
<!-- Created with Inkscape (http://www.inkscape.org/) -->

<svg
   xmlns:dc="http://purl.org/dc/elements/1.1/"
   xmlns:cc="http://creativecommons.org/ns#"
   xmlns:rdf="http://www.w3.org/1999/02/22-rdf-syntax-ns#"
   xmlns:svg="http://www.w3.org/2000/svg"
   xmlns="http://www.w3.org/2000/svg"
   xmlns:sodipodi="http://sodipodi.sourceforge.net/DTD/sodipodi-0.dtd"
   xmlns:inkscape="http://www.inkscape.org/namespaces/inkscape"
   version="1.1"
   id="svg3693"
   width="650"
   height="650"
   viewBox="0 0 650 650"
   sodipodi:docname="rays-main.svg"
   inkscape:version="0.92.1 r15371"
   inkscape:export-filename="E:\Downloads\rays-main.png"
   inkscape:export-xdpi="96"
   inkscape:export-ydpi="96">
  <metadata
     id="metadata3699">
    <rdf:RDF>
      <cc:Work
         rdf:about="">
        <dc:format>image/svg+xml</dc:format>
        <dc:type
           rdf:resource="http://purl.org/dc/dcmitype/StillImage" />
        <dc:title />
      </cc:Work>
    </rdf:RDF>
  </metadata>
  <defs
     id="defs3697" />
  <sodipodi:namedview
     pagecolor="#ffffff"
     bordercolor="#666666"
     borderopacity="1"
     objecttolerance="10"
     gridtolerance="10"
     guidetolerance="10"
     inkscape:pageopacity="0"
     inkscape:pageshadow="2"
     inkscape:window-width="1858"
     inkscape:window-height="1057"
     id="namedview3695"
     showgrid="false"
     inkscape:zoom="5.6568544"
     inkscape:cx="388.58663"
     inkscape:cy="622.3991"
     inkscape:window-x="1334"
     inkscape:window-y="470"
     inkscape:window-maximized="1"
     inkscape:current-layer="svg3693" />
  <g
     transform="matrix(-0.80784216,-0.58939888,-0.58939888,0.80784216,852.98607,142.18204)"
     id="g966-9-1-5-2-5-3" />
  <circle
     style="fill:#00bce4;fill-opacity:1;fill-rule:evenodd;stroke:#000000;stroke-width:1;stroke-linecap:square;stroke-linejoin:bevel;stroke-miterlimit:4;stroke-dasharray:none;stroke-opacity:1"
     id="path5288"
     cx="325"
     cy="325"
     r="319.71527" />
  <path
     sodipodi:type="star"
     style="fill:#ff8e05;fill-opacity:1;fill-rule:evenodd;stroke:#000000;stroke-width:0.46505338;stroke-linecap:square;stroke-linejoin:bevel;stroke-miterlimit:4;stroke-dasharray:none;stroke-opacity:1"
     id="path5278"
     sodipodi:sides="42"
     sodipodi:cx="325.10107"
     sodipodi:cy="325.06955"
     sodipodi:r1="1.5044267"
     sodipodi:r2="150.44267"
     sodipodi:arg1="1.7851394"
     sodipodi:arg2="1.8599392"
     inkscape:flatsided="false"
     inkscape:rounded="0.65"
     inkscape:randomized="0"
     d="M 324.78107,326.53955 C 230.18388,305.94697 374.99903,496.8714 282.20524,469.26714 189.41144,441.66288 415.03701,360.937 324.56556,326.47544 234.0941,292.01388 348.83598,502.38942 261.19281,461.26328 173.54965,420.13714 408.68674,373.94064 324.362,326.37992 240.03726,278.8192 322.14272,503.94641 241.60799,450.21708 161.07326,396.48774 400.4693,385.85259 324.17496,326.25513 247.88061,266.65767 295.51555,501.50758 223.88827,436.37528 152.26099,371.24298 390.56825,396.40675 324.0086,326.10386 257.44894,255.80097 269.54927,495.12742 208.42948,420.0471 c -61.1198,-75.08031 170.7753,-14.67976 115.43716,-94.11762 -55.33813,-79.43786 -79.04271,159.01897 -128.28971,75.6678 -49.247,-83.35116 171.05579,10.93694 128.17534,-75.86139 -42.88046,-86.79833 -101.86042,145.46216 -138.13453,55.70207 -36.2741,-89.76009 167.51517,36.30933 138.05028,-55.91054 -29.4649,-92.21986 -122.40273,128.65595 -144.89364,34.49204 -22.49091,-94.16392 160.23254,60.87062 144.8414,-34.71074 -15.39114,-95.58136 -140.21077,108.97579 -148.41607,12.51152 -8.20529,-96.46428 149.37059,84.07216 148.39701,-12.73556 -0.97357,-96.80773 -154.88673,86.86129 -148.62312,-9.7485 6.2636,-96.60978 135.17193,105.39569 148.63767,9.52412 13.46575,-95.87157 -166.10277,62.80645 -145.51019,-31.79074 20.59259,-94.5972 117.95376,124.36483 145.55802,31.57103 27.60426,-92.7938 -173.60836,37.34862 -139.1468,-53.12283 34.46156,-90.47146 98.1007,140.55587 139.22684,52.91271 41.12614,-87.64317 -177.23583,11.05648 -129.6751,-73.26825 47.56073,-84.32474 76.05623,153.60713 129.78556,73.0724 53.72933,-80.53473 -176.90413,-15.48263 -117.30667,-91.77697 59.59746,-76.29434 52.31279,163.22705 117.44509,91.59977 65.13229,-71.62728 -172.62069,-41.6759 -102.3178,-108.23555 70.30289,-66.55965 27.40076,169.20076 102.48108,108.08096 75.08031,-61.1198 -164.48119,-66.93819 -85.04332,-122.27632 79.43786,-55.33814 1.87665,171.3948 85.22782,122.1478 83.35116,-49.247 -152.66745,-90.7052 -65.86912,-133.58565 86.79833,-42.88046 -23.68938,169.76016 66.07071,133.48606 89.76009,-36.27411 -137.44337,-112.446 -45.22351,-141.9109 92.21987,-29.46489 -48.72622,164.33337 45.4377,141.84246 94.16391,-22.49091 -119.14904,-131.67494 -23.56768,-147.06608 95.58136,-15.39114 -72.67461,155.23564 23.78967,147.03034 96.46427,-8.2053 -98.19311,-147.96249 -1.38539,-148.93606 96.80773,-0.97357 -94.99956,142.67019 1.61023,148.93379 96.60979,6.2636 -75.04371,-160.94478 20.82785,-147.47904 95.87157,13.46575 -115.20238,126.91774 -20.60519,147.51032 94.5972,20.59258 -50.21795,-170.33185 42.57584,-142.72759 92.7938,27.60426 -132.83178,108.33014 -42.36032,142.7917 90.47146,34.46156 -24.27042,-175.91398 63.37275,-134.78784 87.64316,41.12614 -147.49393,87.32263 -63.16919,134.88336 84.32473,47.56072 2.21928,-177.56649 82.75401,-123.83716 80.53472,53.72934 -158.86131,64.36449 -82.56697,123.96195 76.29434,59.59746 28.65941,-175.25245 100.28669,-110.12015 71.62728,65.1323 -166.67998,39.96853 -100.12033,110.27142 66.55966,70.30289 54.45932,-169.02356 115.57912,-93.94324 61.1198,75.08031 -170.7753,14.67975 -115.43717,94.11762 55.33814,79.43786 79.04272,-159.01897 128.28972,-75.6678 49.247,83.35116 -171.05579,-10.93694 -128.17534,75.86139 42.88046,86.79833 101.86042,-145.46216 138.13453,-55.70207 36.2741,89.76008 -167.51518,-36.30933 -138.05028,55.91054 29.4649,92.21986 122.40273,-128.65596 144.89364,-34.49204 22.49091,94.16391 -160.23254,-60.87062 -144.8414,34.71074 15.39114,95.58136 140.21077,-108.97579 148.41606,-12.51152 8.2053,96.46428 -149.37058,-84.07217 -148.39701,12.73556 0.97358,96.80773 154.88673,-86.86129 148.62313,9.7485 -6.2636,96.60978 -135.17193,-105.39569 -148.63767,-9.52412 -13.46575,95.87157 166.10277,-62.80645 145.51019,31.79074 -20.59259,94.5972 -117.95376,-124.36483 -145.55802,-31.57103 -27.60426,92.79379 173.60836,-37.34863 139.1468,53.12283 -34.46156,90.47146 -98.1007,-140.55587 -139.22684,-52.91271 -41.12614,87.64317 177.23582,-11.05648 129.6751,73.26825 -47.56073,84.32474 -76.05623,-153.60713 -129.78556,-73.0724 -53.72933,80.53473 176.90413,15.48263 117.30667,91.77697 -59.59747,76.29434 -52.31279,-163.22706 -117.44509,-91.59977 -65.1323,71.62728 172.62069,41.6759 102.3178,108.23555 -70.30289,66.55965 -27.40076,-169.20076 -102.48108,-108.08096 -75.08032,61.1198 164.48119,66.93819 85.04332,122.27632 -79.43786,55.33814 -1.87665,-171.3948 -85.22782,-122.1478 -83.35116,49.247 152.66745,90.7052 65.86912,133.58565 -86.79833,42.88046 23.68937,-169.76016 -66.07071,-133.48606 -89.76009,36.27411 137.44337,112.446 45.22351,141.91089 -92.21987,29.4649 48.72622,-164.33336 -45.4377,-141.84245 -94.16391,22.49091 119.14904,131.67494 23.56768,147.06608 -95.58136,15.39113 72.67461,-155.23564 -23.78967,-147.03034 -96.46428,8.2053 98.19311,147.96248 1.38538,148.93606 -96.80772,0.97357 94.99957,-142.6702 -1.61022,-148.9338 -96.60979,-6.2636 75.04371,160.94479 -20.82786,147.47904 -95.87156,-13.46574 115.20239,-126.91773 20.60519,-147.51031 z"
     inkscape:transform-center-x="21.018897"
     inkscape:transform-center-y="9.8394529"
     transform="matrix(2.1255876,0,0,2.1238137,-366.03081,-365.38716)" />
</svg>
