<svg xmlns="http://www.w3.org/2000/svg" viewBox="0 0 1728 1296"><defs><style>.cls-1{fill:#ffd400;}</style></defs><title>Lukis logo</title><g id="Layer_1" data-name="Layer 1"><path class="cls-1" d="M884.53,1073.81c-44.52,0-84.82-32.29-113.48-90.92C745.36,930.31,731.2,861.09,731.2,788V761.54h306.65V788c0,73.11-14.15,142.33-39.85,194.91C969.35,1041.52,929,1073.81,884.53,1073.81Z"/><polygon class="cls-1" points="999.62 375.65 1406.44 375.65 999.62 905.57 999.62 375.65"/><polyline class="cls-1" points="1330.1 1073.04 999.62 1073.04 999.62 869.49 1103.38 734.49"/><polygon class="cls-1" points="1265.62 1073.04 1314.22 771.14 1431.03 771.14 1431.03 1073.04 1265.62 1073.04"/><path class="cls-1" d="M1369.65,796.78a59.84,59.84,0,1,1,59.84-59.84A59.91,59.91,0,0,1,1369.65,796.78Z"/><path class="cls-1" d="M1525.4,919.6a143.55,143.55,0,0,1,26.29-284.44l26.59-.15v151.2a143.53,143.53,0,0,1-26.29,284.5l-26.59.15Z"/><path class="cls-1" d="M545.92,930.16,484.85,824.38H751.94l-44.79,45.08a204,204,0,0,1-145.66,60.7Z"/><path d="M561.49,903.72a178.43,178.43,0,0,0,126.9-52.9H530.65l30.54,52.9Z"/><path class="cls-1" d="M375.83,635.55l7.65-13.23A207.35,207.35,0,0,1,537,520.86L576.5,516,487.62,829.19Z"/><path d="M406.37,635.56l72.89,126.25L540.19,547.1A180.78,180.78,0,0,0,406.37,635.56Z"/><path class="cls-1" d="M419.84,231.21H657.32l-67.65,238.4L569.08,469l-2.39-.08c-1.85-.06-3.6-.12-5.2-.12a254.38,254.38,0,0,0-178.41,72.72l-70.92,69.1Z"/><path d="M561.49,442.36c2.8,0,5.58.13,8.36.21l52.48-184.93H439.82L364.63,522.58A281.94,281.94,0,0,1,561.49,442.36Z"/><path class="cls-1" d="M231.22,895.84l58-204.39,24.15,95.6a255.87,255.87,0,0,0,28.49,68.77l23.95,40Z"/><path d="M319.18,869.4a282.47,282.47,0,0,1-31.43-75.87L266.21,869.4Z"/><path class="cls-1" d="M180.39,1075l36.51-128.65H433.55l5.91,3.22a255.85,255.85,0,0,0,122,31.1,253.06,253.06,0,0,0,108.11-24L722.07,932,681.5,1075Z"/><path d="M561.49,1007.09a281.94,281.94,0,0,1-134.68-34.32H236.88l-21.5,75.77H661.52l19.29-68A280.61,280.61,0,0,1,561.49,1007.09Z"/><path d="M884.53,1047.37c70.08,0,126.88-116.44,126.88-259.39H757.64C757.64,930.92,814.45,1047.37,884.53,1047.37Z"/><path class="cls-1" d="M561.49,1010a284.88,284.88,0,0,1-135.42-34.32H21.58L313.87,469.46l36.61,63.4a285,285,0,0,1,211-93.44c157.32,0,285.31,128,285.31,285.31S718.81,1010,561.49,1010Zm1.4-109.27c96.43-.76,174.65-79.44,174.65-176,0-97.07-79-176-176-176-62.12,0-120.25,33.69-151.71,86.89ZM314,866.46a285.09,285.09,0,0,1-36.62-115.32L210.84,866.46Z"/><path d="M561.49,465.86c-89.1,0-167.83,45.25-214.42,114l-33.2-57.5L67.38,949.28H432.94A257.19,257.19,0,0,0,561.49,983.6c142.74,0,258.87-116.13,258.87-258.87S704.23,465.86,561.49,465.86ZM313.87,635.11l3,5.15A258,258,0,0,0,364.92,892.9H165Zm135,257.79A202.44,202.44,0,0,1,359,724.73c0-3.66.11-7.3.3-10.92L462.7,892.9Zm112.65,34.32c-4.77,0-9.49-.23-14.18-.55L379.51,636c32.94-67.31,102.13-113.79,182-113.79C673.14,522.24,764,613.08,764,724.73S673.14,927.22,561.49,927.22Z"/><polygon points="1352.81 402.09 1026.06 402.09 1026.06 827.7 1352.81 402.09"/><polygon points="1098.51 784.21 1026.06 878.48 1026.06 1046.6 1279.7 1046.6 1098.7 784.6 1098.51 784.21"/><polygon points="1404.59 1046.6 1296.66 1046.6 1336.75 797.58 1404.59 797.58 1404.59 1046.6"/><circle cx="1369.65" cy="736.93" r="33.4"/><path d="M1551.84,810.13V661.6c-63.22.36-116.41,52.63-116.41,117.07s53.19,116.71,116.41,117.07v148.53a117.07,117.07,0,0,0,0-234.15Z"/></g></svg>